# xmcd
#
# Track frame offsets: 
#        150
#        16818
#        36888
#        52622
#        72866
#        96183
#        112018
#        129086
#        145068
#        163028
#        181899
#
# Disc length: 2679 seconds
#
# Revision: 0
# Processed by: cddbd v1.5.2PL0 Copyright (c) Steve Scherf et al.
# Submitted via: ExactAudioCopy v0.99pb4
#
DISCID=850a750b
DTITLE=Ndidi - Dark Swing
DYEAR=2014
DGENRE=R&B
TTITLE0=How Long
TTITLE1=Engine Gone Cold
TTITLE2=Once Again
TTITLE3=Sit Down
TTITLE4=Love And Laughter
TTITLE5=Don't Come Around Here
TTITLE6=Sugarman
TTITLE7=Last Of The Pure
TTITLE8=Why Can't You Be Wine?
TTITLE9=Dark Swing
TTITLE10=Yer So Bad
EXTD=
EXTT0=
EXTT1=
EXTT2=
EXTT3=
EXTT4=
EXTT5=
EXTT6=
EXTT7=
EXTT8=
EXTT9=
EXTT10=
PLAYORDER=
